<svg xmlns="http://www.w3.org/2000/svg" width="800" height="800" fill="none"><path fill="#FAFF00" d="M0 0h800v800H0V0Z"/><path fill="#000" d="m271.37 438.67 3.64-14.17-83.33 2.21 1.3 12.87-12.22 1.3-2.08-19.37 5.98-6.76 67.34-1.82 15.86-21.32 10.01 7.41-10.27 13.39 15.21-.39 6.24 7.8-5.85 21.84-11.83-2.99Zm-53.17-40.3 10.53-6.11 8.45 14.82-10.66 5.98-8.32-14.69Zm-28.34 4.03 9.49-7.67 9.36 11.57-9.49 7.8-9.36-11.7Zm24.57 99.45 2.6-11.83 13.78 2.73-2.34-13.52-47.84 5.2-1.3-12.22 47.06-5.07-.52-3.64 2.08-5.72 14.56-11.96-34.71-3.51 1.17-12.09 49.4 4.68 3.38 10.92-23.27 19.11.13.91 49.14-5.46 1.3 12.22-48.36 5.33 3.77 21.58-7.28 7.15-22.75-4.81Zm237.8-72.93-4.81 11.31-24.7-10.66-21.71 14.56-6.76-10.27 15.08-10.14-9.36-4.03 4.81-11.18 16.51 7.15 13.52-9.1-37.7-3.25 1.04-12.35 54.86 5.07 2.99 11.18-21.19 14.3 17.42 7.41Zm-80.47-36.79 12.35-.39 1.3 48.1-12.09.39-1.56-48.1Zm-18.98 7.15 12.22-.39.78 35.49-12.22.26-.78-35.36Zm79.82 75.79 4.68-18.59-67.6 1.69 2.6 16.77-11.96 1.95-3.77-23.66 5.85-7.02 82.68-2.34 6.24 7.67-6.76 26.52-11.96-2.99Zm-77.22 20.67 53.43-36.66 7.02 10.01-53.43 36.92-7.02-10.27Zm54.08-7.93 6.11-10.79 35.36 19.89-5.98 10.66-35.49-19.76Zm132.5-92.56 16.9 14.82-8.19 9.1-16.9-14.69 8.19-9.23Zm49.27 34.32v-28.73h12.35v27.95l19.5-1.3.78 12.09-20.28 1.3v44.98l27.04.91-.39 12.22-69.42-2.34.26-12.22 30.16 1.04v-43.81l-19.37 1.17-.78-12.09 20.15-1.17Zm-42.25 4.55-26.65-4.94 2.08-11.96 36.53 6.5 3.9 9.75-14.17 18.33.13 3.9 3.77-3.77 15.34 15.47-8.58 8.58-10.4-10.27.78 37.31-12.22.26-.78-35.88-9.62 12.48-9.75-7.41 29.64-38.35ZM200.648 335.48c1.024 0 1.68.24 1.968.72.288.48.432 1.072.432 1.776 0 .48-.064.816-.192 1.008-.128.16-.384.352-.768.576-.576.384-1.104.768-1.584 1.152-.64.576-2.864 3.008-6.672 7.296 1.44 2.592 2.8 4.928 4.08 7.008.608.96.912 1.84.912 2.64 0 .448-.24.848-.72 1.2-.384.288-.928.432-1.632.432-.704 0-1.616-.656-2.736-1.968-.96-1.184-2.144-2.928-3.552-5.232-3.776 4.256-6.096 6.688-6.96 7.296a3.165 3.165 0 0 1-1.872.576c-.416 0-.88-.256-1.392-.768-.512-.48-.768-.944-.768-1.392 0-.288.016-.512.048-.672l.96-.864c.576-.512 3.12-3.296 7.632-8.352-1.024-1.984-1.856-3.824-2.496-5.52-.64-1.728-.96-3.104-.96-4.128 0-.928.288-1.552.864-1.872.576-.32 1.424-.48 2.544-.48.544 0 1.088.144 1.632.432.544.256.816.608.816 1.056l-.048.72c0 1.376.48 3.168 1.44 5.376 2.208-2.592 4.064-4.576 5.568-5.952 1.536-1.376 2.688-2.064 3.456-2.064Zm35.98 23.376c-.128.544-.416.912-.864 1.104-.448.224-1.04.336-1.776.336-2.208 0-3.312-.496-3.312-1.488l.288-1.824c-.896.672-1.952 1.344-3.168 2.016-1.216.672-2.224 1.008-3.024 1.008-4.736 0-7.104-1.552-7.104-4.656 0-5.28 1.584-11.008 4.752-17.184.384-.736.784-1.264 1.2-1.584.448-.32 1.2-.48 2.256-.48 1.12 0 1.952.16 2.496.48.576.288.864.64.864 1.056 0 .096-.176.384-.528.864-.352.416-.656.832-.912 1.248-3.008 5.024-4.512 9.92-4.512 14.688 0 .416.16.784.48 1.104.32.32.608.48.864.48.704 0 1.888-.336 3.552-1.008 1.696-.672 2.992-1.36 3.888-2.064l.96-3.888c1.152-4.64 1.872-7.488 2.16-8.544.352-1.28.8-2.32 1.344-3.12.576-.832 1.472-1.248 2.688-1.248 1.696 0 2.544.512 2.544 1.536 0 .16-.048.368-.144.624a7.514 7.514 0 0 0-.144.576l-1.92 7.776c-1.536 6.176-2.512 10.24-2.928 12.192Zm28.318 1.152c-3.136 0-5.424-.624-6.864-1.872-1.44-1.248-2.16-2.912-2.16-4.992 0-3.04.752-5.856 2.256-8.448 1.536-2.592 3.568-4.64 6.096-6.144 2.56-1.536 5.312-2.304 8.256-2.304 1.792 0 3.296.512 4.512 1.536 1.216.992 1.824 2.464 1.824 4.416 0 2.176-.816 3.904-2.448 5.184-1.6 1.248-3.632 2.176-6.096 2.784-2.432.576-5.36 1.024-8.784 1.344a5.75 5.75 0 0 0-.192 1.488c0 .896.368 1.584 1.104 2.064.768.48 1.84.72 3.216.72 1.024 0 2.192-.208 3.504-.624 1.344-.416 2.368-1.104 3.072-2.064a4.297 4.297 0 0 1 1.44-1.296c.608-.32 1.184-.48 1.728-.48.512 0 .928.176 1.248.528.32.32.48.816.48 1.488-.384 1.024-1.136 2.064-2.256 3.12-1.12 1.024-2.544 1.872-4.272 2.544-1.728.672-3.616 1.008-5.664 1.008Zm-2.064-12.912c1.12-.032 2.528-.208 4.224-.528 1.696-.32 3.232-.88 4.608-1.68 1.376-.832 2.064-1.92 2.064-3.264 0-.384-.208-.688-.624-.912a2.519 2.519 0 0 0-1.344-.384c-.96 0-2.064.368-3.312 1.104a17.988 17.988 0 0 0-3.408 2.688c-1.056 1.056-1.792 2.048-2.208 2.976ZM361.648 335.48c1.024 0 1.68.24 1.968.72.288.48.432 1.072.432 1.776 0 .48-.064.816-.192 1.008-.128.16-.384.352-.768.576-.576.384-1.104.768-1.584 1.152-.64.576-2.864 3.008-6.672 7.296 1.44 2.592 2.8 4.928 4.08 7.008.608.96.912 1.84.912 2.64 0 .448-.24.848-.72 1.2-.384.288-.928.432-1.632.432-.704 0-1.616-.656-2.736-1.968-.96-1.184-2.144-2.928-3.552-5.232-3.776 4.256-6.096 6.688-6.96 7.296a3.165 3.165 0 0 1-1.872.576c-.416 0-.88-.256-1.392-.768-.512-.48-.768-.944-.768-1.392 0-.288.016-.512.048-.672l.96-.864c.576-.512 3.12-3.296 7.632-8.352-1.024-1.984-1.856-3.824-2.496-5.52-.64-1.728-.96-3.104-.96-4.128 0-.928.288-1.552.864-1.872.576-.32 1.424-.48 2.544-.48.544 0 1.088.144 1.632.432.544.256.816.608.816 1.056l-.048.72c0 1.376.48 3.168 1.44 5.376 2.208-2.592 4.064-4.576 5.568-5.952 1.536-1.376 2.688-2.064 3.456-2.064Zm22.348-4.992c0-.992.304-1.872.912-2.64.64-.768 1.52-1.152 2.64-1.152 1.184 0 2.208.368 3.072 1.104.896.736 1.344 1.568 1.344 2.496 0 .928-.448 1.728-1.344 2.4-.896.672-1.936 1.008-3.12 1.008-1.152 0-2.032-.288-2.64-.864-.576-.608-.864-1.392-.864-2.352Zm5.04 8.496c-1.696 6.912-2.992 12.112-3.888 15.6a6.92 6.92 0 0 0-.192 1.68l.048 1.344c0 .544-.176.928-.528 1.152-.32.224-1.024.352-2.112.384-1.056 0-1.856-.112-2.4-.336-.544-.224-.816-.704-.816-1.44 0-.352.4-2.224 1.2-5.616.832-3.392 1.952-7.808 3.36-13.248l-1.104-1.44a.46.46 0 0 1-.144-.336c0-.32.352-.576 1.056-.768.704-.224 1.68-.336 2.928-.336 1.088 0 1.776.32 2.064.96.32.608.496 1.408.528 2.4Zm34.809 19.2c-.224.576-.752.96-1.584 1.152-.8.224-1.504.336-2.112.336-.576 0-.96-.144-1.152-.432-.16-.256-.304-.656-.432-1.2a21.05 21.05 0 0 1-.24-1.104c-1.376.928-2.784 1.632-4.224 2.112-1.408.512-2.592.768-3.552.768-.832 0-1.776-.272-2.832-.816a8.327 8.327 0 0 1-2.64-2.208c-.736-.928-1.104-1.952-1.104-3.072 0-1.792.592-4.08 1.776-6.864a22.117 22.117 0 0 1 4.992-7.296c2.176-2.08 4.704-3.12 7.584-3.12 2.528 0 4.784.4 6.768 1.2 1.984.8 2.976 1.936 2.976 3.408-.896 1.664-1.872 4.16-2.928 7.488-1.024 3.328-1.536 5.792-1.536 7.392 0 1.056.08 1.808.24 2.256Zm-5.424-5.28c.256-1.408.688-3.072 1.296-4.992a35.671 35.671 0 0 1 2.544-5.856c-.16-.64-.672-1.056-1.536-1.248-.832-.224-1.584-.336-2.256-.336-1.184 0-2.464.8-3.84 2.4-1.376 1.6-2.56 3.472-3.552 5.616-.96 2.112-1.44 3.824-1.44 5.136 0 .64.176 1.104.528 1.392.352.256.8.384 1.344.384.736 0 1.904-.272 3.504-.816 1.632-.576 2.768-1.136 3.408-1.68Zm28.406-17.184c1.568-.8 2.816-1.2 3.744-1.2 1.088 0 1.696.56 1.824 1.68l-1.584 5.904c.672-.928 1.664-1.84 2.976-2.736a24.362 24.362 0 0 1 3.936-2.208c1.344-.576 2.416-.864 3.216-.864 1.696 0 2.928.32 3.696.96.768.608 1.152 1.584 1.152 2.928-.32 1.792-.8 3.952-1.44 6.48-.64 2.496-1.04 4.08-1.2 4.752-.704 2.624-1.2 4.592-1.488 5.904-.192.8-.384 1.36-.576 1.68-.16.288-.464.496-.912.624-.416.128-1.152.192-2.208.192a4.61 4.61 0 0 1-1.632-.288c-.48-.192-.72-.512-.72-.96.096-1.056.416-2.672.96-4.848a687.302 687.302 0 0 1 2.304-8.544c.64-2.176.96-3.36.96-3.552 0-.448-.256-.672-.768-.672-.736 0-1.84.512-3.312 1.536-1.472.992-2.992 2.672-4.56 5.04-1.568 2.336-2.8 5.392-3.696 9.168-.064.192-.144.544-.24 1.056s-.352.88-.768 1.104c-.416.192-1.088.288-2.016.288-1.056 0-1.84-.112-2.352-.336-.48-.224-.72-.704-.72-1.44l.528-2.064c1.888-7.392 3.52-13.92 4.896-19.584ZM550.8 340.424c-.384-.192-.864-.288-1.44-.288-1.44 0-2.88.288-4.32.864-1.44.576-2.16 1.312-2.16 2.208 0 .64.288 1.152.864 1.536.576.384 1.488.816 2.736 1.296 1.344.544 2.432 1.056 3.264 1.536.832.48 1.552 1.184 2.16 2.112.64.896.96 2.048.96 3.456 0 2.304-.96 4.08-2.88 5.328-1.888 1.216-4.432 1.824-7.632 1.824-1.568 0-3.024-.24-4.368-.72-1.344-.48-2.416-1.088-3.216-1.824-.768-.768-1.184-1.52-1.248-2.256 0-.768.336-1.392 1.008-1.872.672-.512 1.616-.848 2.832-1.008.032.64.368 1.248 1.008 1.824.64.544 1.392.992 2.256 1.344.896.32 1.664.48 2.304.48a5.39 5.39 0 0 0 2.976-.864c.896-.608 1.344-1.312 1.344-2.112 0-1.472-1.424-2.64-4.272-3.504-1.824-.544-3.232-1.408-4.224-2.592-.96-1.184-1.44-2.432-1.44-3.744 0-2.592 1.168-4.448 3.504-5.568 2.368-1.152 5.376-1.728 9.024-1.728 2.048 0 3.632.24 4.752.72 1.12.48 1.68 1.312 1.68 2.496 0 .8-.304 1.504-.912 2.112-.576.608-1.408.912-2.496.912-.96 0-1.584-.064-1.872-.192-.256-.16-.4-.416-.432-.768 0-.32.08-.656.24-1.008Zm26.582 2.736c.736-1.44 1.664-2.672 2.784-3.696 1.12-1.056 2.256-1.84 3.408-2.352 1.184-.544 2.192-.816 3.024-.816 1.984 0 3.536.496 4.656 1.488 1.152.992 1.728 2.192 1.728 3.6l-3.6 14.736v.336c0 1.664-.256 2.816-.768 3.456-.48.64-1.408.96-2.784.96-.736 0-1.36-.24-1.872-.72-.48-.48-.72-1.024-.72-1.632 0-.192.016-.336.048-.432.832-3.52 1.52-6.384 2.064-8.592l1.152-4.944c.48-1.92.72-2.944.72-3.072 0-.448-.256-.672-.768-.672-.736 0-1.76.336-3.072 1.008-1.312.64-2.736 1.872-4.272 3.696-1.504 1.824-2.784 4.32-3.84 7.488-.448 1.376-.784 2.576-1.008 3.6l-.048.192c-.128.576-.272 1.024-.432 1.344-.16.288-.464.528-.912.72-.416.192-1.072.288-1.968.288-2.048 0-3.072-.72-3.072-2.16.096-.448.304-1.088.624-1.92.288-.64.528-1.328.72-2.064l7.44-27.312c.128-.448.48-.816 1.056-1.104.576-.32 1.152-.48 1.728-.48.96 0 1.632.256 2.016.768.416.512.656 1.216.72 2.112l-4.752 16.176Zm39.564 16.848c-3.136 0-5.424-.624-6.864-1.872-1.44-1.248-2.16-2.912-2.16-4.992 0-3.04.752-5.856 2.256-8.448 1.536-2.592 3.568-4.64 6.096-6.144 2.56-1.536 5.312-2.304 8.256-2.304 1.792 0 3.296.512 4.512 1.536 1.216.992 1.824 2.464 1.824 4.416 0 1.12-.368 2.048-1.104 2.784-.704.704-1.728 1.344-3.072 1.92-1.344.544-3.52 1.328-6.528 2.352-2.72.896-4.928 1.648-6.624 2.256a5.75 5.75 0 0 0-.192 1.488c0 .896.368 1.584 1.104 2.064.768.48 1.84.72 3.216.72.864 0 1.856-.176 2.976-.528 1.12-.352 1.824-.8 2.112-1.344 1.088-1.984 2.08-2.976 2.976-2.976 1.312 0 2.192.256 2.64.768.48.48.736 1.024.768 1.632-.384 1.024-1.136 2.064-2.256 3.12-1.12 1.024-2.544 1.872-4.272 2.544-1.728.672-3.616 1.008-5.664 1.008Zm-2.064-12.912c3.168-1.024 5.776-1.968 7.824-2.832 2.048-.896 3.072-1.776 3.072-2.64 0-.384-.208-.688-.624-.912a2.519 2.519 0 0 0-1.344-.384c-.96 0-2.064.368-3.312 1.104a17.988 17.988 0 0 0-3.408 2.688c-1.056 1.056-1.792 2.048-2.208 2.976Z"/></svg>
