<svg xmlns="http://www.w3.org/2000/svg" width="909" height="500" fill="none"><path fill="#000" d="m369.936 273.776 1.792-6.976-41.024 1.088.64 6.336-6.016.64-1.024-9.536 2.944-3.328 33.152-.896 7.808-10.496 4.928 3.648-5.056 6.592 7.488-.192 3.072 3.84-2.88 10.752-5.824-1.472Zm-26.176-19.84 5.184-3.008 4.16 7.296-5.248 2.944-4.096-7.232Zm-13.952 1.984 4.672-3.776 4.608 5.696-4.672 3.84-4.608-5.76Zm12.096 48.96 1.28-5.824 6.784 1.344-1.152-6.656-23.552 2.56-.64-6.016 23.168-2.496-.256-1.792 1.024-2.816 7.168-5.888-17.088-1.728.576-5.952 24.32 2.304 1.664 5.376-11.456 9.408.064.448L378 284.464l.64 6.016-23.808 2.624 1.856 10.624-3.584 3.52-11.2-2.368Zm142.963-35.904-2.368 5.568-12.16-5.248-10.688 7.168-3.328-5.056 7.424-4.992-4.608-1.984 2.368-5.504 8.128 3.52 6.656-4.48-18.56-1.6.512-6.08 27.008 2.496 1.472 5.504-10.432 7.04 8.576 3.648Zm-39.616-18.112 6.08-.192.64 23.68-5.952.192-.768-23.68Zm-9.344 3.52 6.016-.192.384 17.472-6.016.128-.384-17.408Zm39.296 37.312 2.304-9.152-33.28.832 1.28 8.256-5.888.96-1.856-11.648 2.88-3.456 40.704-1.152 3.072 3.776-3.328 13.056-5.888-1.472Zm-38.016 10.176 26.304-18.048 3.456 4.928-26.304 18.176-3.456-5.056Zm26.624-3.904 3.008-5.312 17.408 9.792-2.944 5.248-17.472-9.728Zm91.123-45.568 8.32 7.296-4.032 4.48-8.32-7.232 4.032-4.544Zm24.256 16.896v-14.144h6.08v13.76l9.6-.64.384 5.952-9.984.64v22.144l13.312.448-.192 6.016-34.176-1.152.128-6.016 14.848.512v-21.568l-9.536.576-.384-5.952 9.92-.576Zm-20.8 2.24-13.12-2.432 1.024-5.888 17.984 3.2 1.92 4.8-6.976 9.024.064 1.92 1.856-1.856 7.552 7.616-4.224 4.224-5.12-5.056.384 18.368-6.016.128-.384-17.664-4.736 6.144-4.8-3.648 14.592-18.88ZM336.432 216.32c.683 0 1.12.16 1.312.48.192.32.288.715.288 1.184 0 .32-.043.544-.128.672-.085.107-.256.235-.512.384-.384.256-.736.512-1.056.768-.427.384-1.909 2.005-4.448 4.864a122.89 122.89 0 0 0 2.72 4.672c.405.64.608 1.227.608 1.76 0 .299-.16.565-.48.8-.256.192-.619.288-1.088.288-.469 0-1.077-.437-1.824-1.312-.64-.789-1.429-1.952-2.368-3.488-2.517 2.837-4.064 4.459-4.64 4.864a2.112 2.112 0 0 1-1.248.384c-.277 0-.587-.171-.928-.512-.341-.32-.512-.629-.512-.928 0-.192.011-.341.032-.448l.64-.576c.384-.341 2.08-2.197 5.088-5.568a35.204 35.204 0 0 1-1.664-3.68c-.427-1.152-.64-2.069-.64-2.752 0-.619.192-1.035.576-1.248.384-.213.949-.32 1.696-.32.363 0 .725.096 1.088.288.363.171.544.405.544.704l-.032.48c0 .917.32 2.112.96 3.584 1.472-1.728 2.709-3.051 3.712-3.968 1.024-.917 1.792-1.376 2.304-1.376Zm17.32 15.584c-.086.363-.278.608-.576.736-.299.149-.694.224-1.184.224-1.472 0-2.208-.331-2.208-.992l.192-1.216c-.598.448-1.302.896-2.112 1.344-.811.448-1.483.672-2.016.672-3.158 0-4.736-1.035-4.736-3.104 0-3.52 1.056-7.339 3.168-11.456.256-.491.522-.843.8-1.056.298-.213.8-.32 1.504-.32.746 0 1.301.107 1.664.32.384.192.576.427.576.704 0 .064-.118.256-.352.576a6.75 6.75 0 0 0-.608.832c-2.006 3.349-3.008 6.613-3.008 9.792 0 .277.106.523.32.736.213.213.405.32.576.32.469 0 1.258-.224 2.368-.672 1.13-.448 1.994-.907 2.592-1.376l.64-2.592c.768-3.093 1.248-4.992 1.44-5.696.234-.853.533-1.547.896-2.08.384-.555.981-.832 1.792-.832 1.13 0 1.696.341 1.696 1.024 0 .107-.032.245-.096.416a4.647 4.647 0 0 0-.096.384l-1.28 5.184c-1.024 4.117-1.675 6.827-1.952 8.128Zm12.212.768c-2.091 0-3.616-.416-4.576-1.248-.96-.832-1.44-1.941-1.44-3.328 0-2.027.501-3.904 1.504-5.632 1.024-1.728 2.379-3.093 4.064-4.096 1.707-1.024 3.541-1.536 5.504-1.536 1.195 0 2.197.341 3.008 1.024.811.661 1.216 1.643 1.216 2.944 0 1.451-.544 2.603-1.632 3.456-1.067.832-2.421 1.451-4.064 1.856-1.621.384-3.573.683-5.856.896a3.85 3.85 0 0 0-.128.992c0 .597.245 1.056.736 1.376.512.32 1.227.48 2.144.48.683 0 1.461-.139 2.336-.416.896-.277 1.579-.736 2.048-1.376.256-.363.576-.651.96-.864.405-.213.789-.32 1.152-.32.341 0 .619.117.832.352.213.213.32.544.32.992-.256.683-.757 1.376-1.504 2.08-.747.683-1.696 1.248-2.848 1.696-1.152.448-2.411.672-3.776.672Zm-1.376-8.608c.747-.021 1.685-.139 2.816-.352a9.596 9.596 0 0 0 3.072-1.12c.917-.555 1.376-1.28 1.376-2.176 0-.256-.139-.459-.416-.608a1.675 1.675 0 0 0-.896-.256c-.64 0-1.376.245-2.208.736a11.995 11.995 0 0 0-2.272 1.792c-.704.704-1.195 1.365-1.472 1.984ZM449.432 216.32c.683 0 1.12.16 1.312.48.192.32.288.715.288 1.184 0 .32-.043.544-.128.672-.085.107-.256.235-.512.384-.384.256-.736.512-1.056.768-.427.384-1.909 2.005-4.448 4.864a122.89 122.89 0 0 0 2.72 4.672c.405.64.608 1.227.608 1.76 0 .299-.16.565-.48.8-.256.192-.619.288-1.088.288-.469 0-1.077-.437-1.824-1.312-.64-.789-1.429-1.952-2.368-3.488-2.517 2.837-4.064 4.459-4.64 4.864a2.112 2.112 0 0 1-1.248.384c-.277 0-.587-.171-.928-.512-.341-.32-.512-.629-.512-.928 0-.192.011-.341.032-.448l.64-.576c.384-.341 2.08-2.197 5.088-5.568a35.204 35.204 0 0 1-1.664-3.68c-.427-1.152-.64-2.069-.64-2.752 0-.619.192-1.035.576-1.248.384-.213.949-.32 1.696-.32.363 0 .725.096 1.088.288.363.171.544.405.544.704l-.032.48c0 .917.32 2.112.96 3.584 1.472-1.728 2.709-3.051 3.712-3.968 1.024-.917 1.792-1.376 2.304-1.376Zm8.232-3.328c0-.661.202-1.248.608-1.76.426-.512 1.013-.768 1.76-.768.789 0 1.472.245 2.048.736.597.491.896 1.045.896 1.664s-.299 1.152-.896 1.6c-.598.448-1.291.672-2.08.672-.768 0-1.355-.192-1.76-.576-.384-.405-.576-.928-.576-1.568Zm3.36 5.664a1097.404 1097.404 0 0 1-2.592 10.4 4.58 4.58 0 0 0-.128 1.12l.032.896c0 .363-.118.619-.352.768-.214.149-.683.235-1.408.256-.704 0-1.238-.075-1.6-.224-.363-.149-.544-.469-.544-.96 0-.235.266-1.483.8-3.744a730.494 730.494 0 0 1 2.24-8.832l-.736-.96a.308.308 0 0 1-.096-.224c0-.213.234-.384.704-.512.469-.149 1.12-.224 1.952-.224.725 0 1.184.213 1.376.64.213.405.33.939.352 1.6Zm16.54 12.8c-.15.384-.502.64-1.056.768-.534.149-1.003.224-1.408.224-.384 0-.64-.096-.768-.288-.107-.171-.203-.437-.288-.8a13.094 13.094 0 0 1-.16-.736 11.592 11.592 0 0 1-2.816 1.408c-.939.341-1.728.512-2.368.512-.555 0-1.184-.181-1.888-.544a5.54 5.54 0 0 1-1.76-1.472c-.491-.619-.736-1.301-.736-2.048 0-1.195.394-2.72 1.184-4.576a14.733 14.733 0 0 1 3.328-4.864c1.45-1.387 3.136-2.08 5.056-2.08 1.685 0 3.189.267 4.512.8 1.322.533 1.984 1.291 1.984 2.272-.598 1.109-1.248 2.773-1.952 4.992-.683 2.219-1.024 3.861-1.024 4.928 0 .704.053 1.205.16 1.504Zm-3.616-3.52c.17-.939.458-2.048.864-3.328a23.724 23.724 0 0 1 1.696-3.904c-.107-.427-.448-.704-1.024-.832a5.858 5.858 0 0 0-1.504-.224c-.79 0-1.643.533-2.56 1.6-.918 1.067-1.707 2.315-2.368 3.744-.64 1.408-.96 2.549-.96 3.424 0 .427.117.736.352.928.234.171.533.256.896.256.49 0 1.269-.181 2.336-.544 1.088-.384 1.845-.757 2.272-1.12Zm12.27-11.456c1.045-.533 1.877-.8 2.496-.8.725 0 1.131.373 1.216 1.12l-1.056 3.936c.448-.619 1.109-1.227 1.984-1.824a16.267 16.267 0 0 1 2.624-1.472c.896-.384 1.611-.576 2.144-.576 1.131 0 1.952.213 2.464.64.512.405.768 1.056.768 1.952-.213 1.195-.533 2.635-.96 4.32-.427 1.664-.693 2.72-.8 3.168-.469 1.749-.8 3.061-.992 3.936-.128.533-.256.907-.384 1.12-.107.192-.309.331-.608.416-.277.085-.768.128-1.472.128-.384 0-.747-.064-1.088-.192-.32-.128-.48-.341-.48-.64.064-.704.277-1.781.64-3.232a456.62 456.62 0 0 1 1.536-5.696c.427-1.451.64-2.24.64-2.368 0-.299-.171-.448-.512-.448-.491 0-1.227.341-2.208 1.024-.981.661-1.995 1.781-3.04 3.36-1.045 1.557-1.867 3.595-2.464 6.112a6.19 6.19 0 0 0-.16.704c-.064.341-.235.587-.512.736-.277.128-.725.192-1.344.192-.704 0-1.227-.075-1.568-.224-.32-.149-.48-.469-.48-.96l.352-1.376a1147.24 1147.24 0 0 0 3.264-13.056ZM562.2 219.616c-.256-.128-.576-.192-.96-.192-.96 0-1.92.192-2.88.576-.96.384-1.44.875-1.44 1.472 0 .427.192.768.576 1.024.384.256.992.544 1.824.864.896.363 1.621.704 2.176 1.024.555.32 1.035.789 1.44 1.408.427.597.64 1.365.64 2.304 0 1.536-.64 2.72-1.92 3.552-1.259.811-2.955 1.216-5.088 1.216a8.599 8.599 0 0 1-2.912-.48c-.896-.32-1.611-.725-2.144-1.216-.512-.512-.789-1.013-.832-1.504 0-.512.224-.928.672-1.248.448-.341 1.077-.565 1.888-.672.021.427.245.832.672 1.216.427.363.928.661 1.504.896.597.213 1.109.32 1.536.32.725 0 1.387-.192 1.984-.576.597-.405.896-.875.896-1.408 0-.981-.949-1.76-2.848-2.336-1.216-.363-2.155-.939-2.816-1.728-.64-.789-.96-1.621-.96-2.496 0-1.728.779-2.965 2.336-3.712 1.579-.768 3.584-1.152 6.016-1.152 1.365 0 2.421.16 3.168.48.747.32 1.12.875 1.12 1.664 0 .533-.203 1.003-.608 1.408-.384.405-.939.608-1.664.608-.64 0-1.056-.043-1.248-.128-.171-.107-.267-.277-.288-.512 0-.213.053-.437.16-.672Zm11.055 1.824a8.596 8.596 0 0 1 1.856-2.464c.746-.704 1.504-1.227 2.272-1.568.789-.363 1.461-.544 2.016-.544 1.322 0 2.357.331 3.104.992.768.661 1.152 1.461 1.152 2.4l-2.4 9.824v.224c0 1.109-.171 1.877-.512 2.304-.32.427-.939.64-1.856.64-.491 0-.907-.16-1.248-.48-.32-.32-.48-.683-.48-1.088 0-.128.01-.224.032-.288a611.723 611.723 0 0 1 1.376-5.728l.768-3.296c.32-1.28.48-1.963.48-2.048 0-.299-.171-.448-.512-.448-.491 0-1.174.224-2.048.672-.875.427-1.824 1.248-2.848 2.464-1.003 1.216-1.856 2.88-2.56 4.992a25.304 25.304 0 0 0-.672 2.4l-.032.128c-.086.384-.182.683-.288.896-.107.192-.31.352-.608.48-.278.128-.715.192-1.312.192-1.366 0-2.048-.48-2.048-1.44.064-.299.202-.725.416-1.28.192-.427.352-.885.48-1.376l4.96-18.208c.085-.299.32-.544.704-.736.384-.213.768-.32 1.152-.32.64 0 1.088.171 1.344.512.277.341.437.811.48 1.408l-3.168 10.784Zm19.709 11.232c-2.091 0-3.616-.416-4.576-1.248-.96-.832-1.44-1.941-1.44-3.328 0-2.027.501-3.904 1.504-5.632 1.024-1.728 2.379-3.093 4.064-4.096 1.707-1.024 3.541-1.536 5.504-1.536 1.195 0 2.197.341 3.008 1.024.811.661 1.216 1.643 1.216 2.944 0 .747-.245 1.365-.736 1.856-.469.469-1.152.896-2.048 1.28-.896.363-2.347.885-4.352 1.568a187.825 187.825 0 0 0-4.416 1.504 3.85 3.85 0 0 0-.128.992c0 .597.245 1.056.736 1.376.512.32 1.227.48 2.144.48.576 0 1.237-.117 1.984-.352.747-.235 1.216-.533 1.408-.896.725-1.323 1.387-1.984 1.984-1.984.875 0 1.461.171 1.76.512.32.32.491.683.512 1.088-.256.683-.757 1.376-1.504 2.08-.747.683-1.696 1.248-2.848 1.696-1.152.448-2.411.672-3.776.672Zm-1.376-8.608c2.112-.683 3.851-1.312 5.216-1.888 1.365-.597 2.048-1.184 2.048-1.76 0-.256-.139-.459-.416-.608a1.675 1.675 0 0 0-.896-.256c-.64 0-1.376.245-2.208.736a11.995 11.995 0 0 0-2.272 1.792c-.704.704-1.195 1.365-1.472 1.984Z" style="mix-blend-mode:darken"/><path fill="#F3F806" fill-opacity=".75" d="M0 0h909v500H0z" style="mix-blend-mode:darken"/></svg>